<?xml version="1.0" encoding="UTF-8"?>
<svg xmlns="http://www.w3.org/2000/svg" width="80" height="80" viewBox="0 0 80 80">
    <circle cx="40.25" cy="40.47" r="37.24" fill="#fff" stroke="#231f20" stroke-miterlimit="10" stroke-width="3"/>
    <path d="M40.29,39.35s11.46-17.92,18.81-17.92c2.79,0,2.34,7.35,2.11,11.57-.3,5.78-2.78,8.68-3.9,9.57s-7.23,2.45-7.23,2.45c0,0,6.34,2.11,6.9,5.23s-3.56,6.68-3.56,6.68c0,0-2.78,2.78-5.45,2.56s-3.78-2.56-4.56-3.56-3.12-6.01-3.12-6.01" fill="#231f20"/>
    <path d="M40.21,39.35s-11.46-17.92-18.81-17.92c-2.79,0-2.34,7.35-2.11,11.57.3,5.78,2.78,8.68,3.9,9.57s7.23,2.45,7.23,2.45c0,0-6.34,2.11-6.9,5.23s3.56,6.68,3.56,6.68c0,0,2.78,2.78,5.45,2.56s3.78-2.56,4.56-3.56,3.12-6.01,3.12-6.01" fill="#231f20"/>
    <path d="M40.25,39.35c-1.04,0-1.88,2.38-1.88,5.31s.84,5.31,1.88,5.31,1.88-2.38,1.88-5.31-.84-5.31-1.88-5.31Z" fill="#231f20"/>
</svg>
